<svg width="25" height="25" viewBox="0 0 25 25" fill="none" xmlns="http://www.w3.org/2000/svg">
<rect x="6" y="5" width="14" height="20" fill="white"/>
<path d="M21.622 0H4.378C3.48211 0 2.62289 0.370722 1.9894 1.03061C1.3559 1.69052 1 2.58552 1 3.51875V21.4812C1 22.4145 1.3559 23.3095 1.9894 23.9694C2.62289 24.6292 3.48211 25 4.378 25H12.226V15.875H9.25901V12.3156H12.226V9.69376C12.226 8.20782 12.6205 7.05313 13.4095 6.23282C14.1985 5.41094 15.268 4.99844 16.6195 4.99844C17.9725 4.99844 18.8485 5.05313 19.249 5.15626V8.32501H17.446C16.795 8.32501 16.351 8.46876 16.1125 8.75626C15.8755 9.04219 15.757 9.47344 15.757 10.0469V12.3156H19.1365L18.6865 15.875H15.757V25H21.622C22.5179 25 23.3771 24.6292 24.0106 23.9694C24.6442 23.3095 25 22.4145 25 21.4812V3.51875C25 2.58552 24.6442 1.69052 24.0106 1.03061C23.3771 0.370722 22.5179 0 21.622 0Z" fill="#3A589B"/>
</svg>
