<svg width="25" height="25" viewBox="0 0 25 25" fill="none" xmlns="http://www.w3.org/2000/svg">
<rect x="2" y="2" width="20" height="20" fill="white"/>
<g clip-path="url(#clip0_414_2059)">
<path fill-rule="evenodd" clip-rule="evenodd" d="M21.9456 0C23.6314 0 25 1.36865 25 3.05439V21.9456C25 23.6313 23.6313 25 21.9456 25H3.05439C1.36865 25 0 23.6313 0 21.9456V3.05439C0 1.36865 1.3686 0 3.05439 0H21.9456V0ZM9.54683 20.7297C16.1845 20.7297 19.8138 15.2295 19.8138 10.4627C19.8138 10.3056 19.8138 10.1484 19.8063 9.99873C20.5098 9.48989 21.1234 8.85381 21.6098 8.12793C20.9663 8.4123 20.2703 8.60688 19.537 8.69668C20.2853 8.24766 20.854 7.54424 21.1234 6.69863C20.4275 7.11021 19.6567 7.40957 18.8335 7.57417C18.175 6.87075 17.2396 6.43672 16.1995 6.43672C14.2089 6.43672 12.5925 8.05313 12.5925 10.0437C12.5925 10.328 12.6225 10.6049 12.6898 10.8668C9.68901 10.7171 7.03247 9.28037 5.25146 7.09526C4.94463 7.62656 4.76504 8.24766 4.76504 8.9062C4.76504 10.1559 5.40112 11.2634 6.37393 11.907C5.78276 11.892 5.229 11.7274 4.74258 11.458V11.5029C4.74258 13.254 5.98481 14.7057 7.63862 15.0424C7.33931 15.1248 7.01753 15.1697 6.68823 15.1697C6.45625 15.1697 6.23179 15.1472 6.00728 15.1023C6.46377 16.5391 7.79575 17.5792 9.37471 17.6092C8.13999 18.5746 6.5835 19.1507 4.89229 19.1507C4.60044 19.1507 4.31606 19.1358 4.03169 19.0983C5.61064 20.1311 7.51138 20.7297 9.54683 20.7297Z" fill="#1CB7EB"/>
</g>
<defs>
<clipPath id="clip0_414_2059">
<rect width="25" height="25" fill="white"/>
</clipPath>
</defs>
</svg>
