<svg width="25" height="25" viewBox="0 0 25 25" fill="none" xmlns="http://www.w3.org/2000/svg">
<path d="M21.875 0H3.125C1.39911 0 0 1.39911 0 3.125V21.875C0 23.6009 1.39911 25 3.125 25H21.875C23.6009 25 25 23.6009 25 21.875V3.125C25 1.39911 23.6009 0 21.875 0Z" fill="#C12025"/>
<path d="M21.9522 10.5935C21.8456 9.31793 21.7611 8.90382 21.498 8.3722C21.1498 7.668 20.6464 7.29666 19.9294 7.21505C19.3748 7.15179 17.289 7.06297 15.3583 7.02003C12.0164 6.94586 6.52173 7.08865 5.82019 7.26815C5.49611 7.35132 5.25273 7.49226 4.99953 7.74396C4.55615 8.18549 4.29187 8.81846 4.18579 9.69389C3.94309 11.6933 3.9379 14.1086 4.17182 16.1804C4.27213 17.0714 4.47927 17.6505 4.86788 18.1276C5.11057 18.4252 5.52838 18.6784 5.90203 18.754C6.16464 18.8068 7.47727 18.8804 9.38992 18.9492C9.6744 18.9594 10.4288 18.977 11.066 18.9885C12.3936 19.0121 14.835 18.9979 16.2307 18.9589C17.1694 18.9327 18.8811 18.8631 19.2011 18.8384C19.2913 18.8315 19.4998 18.8181 19.6644 18.8087C20.2187 18.7775 20.5709 18.6615 20.9018 18.4013C21.3303 18.0648 21.662 17.4428 21.8021 16.7136C21.9348 16.0235 22.0238 14.7943 22.0415 13.399C22.0563 12.233 22.0364 11.6038 21.9522 10.5935ZM10.6878 15.5928V10.4073L15.3581 12.9998L10.6878 15.5928Z" fill="white"/>
</svg>
